# xmcd
#
# Track frame offsets: 
#        150
#        15549
#        35540
#        48970
#        56884
#        79492
#        91752
#        107257
#        121019
#        139748
#        156597
#        168404
#        183425
#        199221
#        226299
#        253430
#        272630
#
# Disc length: 4608 seconds
#
# Revision: 0
# Processed by: cddbd v1.5.2PL0 Copyright (c) Steve Scherf et al.
# Submitted via: ExactAudioCopy v0.99pb5
#
DISCID=e811fe11
DTITLE=The Monks - ...let's start a beat!
DYEAR=2001
DGENRE=Rock
TTITLE0=Monk Time
TTITLE1=Oh How To Do Now
TTITLE2=We Do Wie Du
TTITLE3=Boys Are Boys
TTITLE4=Pretty Suzanne
TTITLE5=Hushie Pushie
TTITLE6=Cuckoo
TTITLE7=Complication
TTITLE8=That's My Girl
TTITLE9=Shut Up
TTITLE10=I Can't Get Over You
TTITLE11=Higgle-Dy Piggle-Dy
TTITLE12=Blast Off!
TTITLE13=I Hate You
TTITLE14=Monk Jam
TTITLE15=An Inspirational Message
TTITLE16=The Monks - Live At Cavestomp! 99
EXTD=
EXTT0=
EXTT1=
EXTT2=
EXTT3=
EXTT4=
EXTT5=
EXTT6=
EXTT7=
EXTT8=
EXTT9=
EXTT10=
EXTT11=
EXTT12=
EXTT13=
EXTT14=
EXTT15=
EXTT16=
PLAYORDER=
